<?xml version="1.0" encoding="utf-8"?>
<!-- Generator: Adobe Illustrator 23.0.4, SVG Export Plug-In . SVG Version: 6.00 Build 0)  -->
<svg version="1.1" id="logo" xmlns="http://www.w3.org/2000/svg" xmlns:xlink="http://www.w3.org/1999/xlink" x="0px" y="0px"
	 viewBox="0 0 409.8 61.1" style="enable-background:new 0 0 409.8 61.1;" xml:space="preserve">
<g>
	<g>
		<path d="M165.8-0.9c-1.3,0-31.3,0-31.3,0V9.9l0,0v6l0,0v10.8l0,0v22.8l0,0v10.8h10.8c0,0,18.8,0,20.5,0s3.1-0.5,4.2-1.5
			c1.1-1,2.2-2.1,3.3-3.3c1.2-1.2,1.6-2.3,1.6-4.4c0-1.6,0-19.9,0-19.9c0-2.3-0.6-4.4-2.5-6l-3-3l3.7-3.7c1.3-1.4,1.8-2.8,1.8-4.6
			s0-5.3,0-5.3c0-1.7-0.7-3.3-1.7-4.3s-2.3-2.3-3.5-3.5C168.5-0.6,167.1-0.9,165.8-0.9z M164.1,48.8c0,1-0.5,1.5-1.4,1.5
			s-17.4,0-17.4,0V27.5c0,0,16.5,0,17.5,0c0.9,0,1.4,0.8,1.4,1.8C164.1,30.3,164.1,47.9,164.1,48.8z M164.1,15.2
			c0,0.8-0.2,1.6-1.3,1.6c-1,0-17.6,0-17.6,0v-6c0,0,16.6,0,17.4,0c0.8,0,1.4,0.6,1.4,1.5C164.1,13.1,164.1,14.3,164.1,15.2z"/>
		<polygon points="362,10.7 362,0 325.2,0 325.2,61.1 362,61.1 362,50.3 336,50.3 336,27.5 353.7,27.5 353.7,16.8 336,16.8 
			336,10.7 		"/>
		<path d="M212.3,0c0,0,0,48.6,0,48.8c0,1-0.5,1.5-1.4,1.5c-0.2,0-1.7,0-7.2,0c-0.9,0-2,0-3.1,0c-4.6,0-5.9,0-6.1,0
			c-0.9,0-1.4-0.6-1.4-1.5c0-0.3,0-48.8,0-48.8h-10.8c0,0,0,51.3,0,51.9c0,2.1,0.4,3.2,1.6,4.4c1.1,1.2,2.3,2.3,3.3,3.3
			c1.1,1,2.4,1.5,4.2,1.5c0.6,0,3.1,0,9.2,0c1.1,0,2.2,0,3.1,0c7.1,0,9.7,0,10.3,0c1.7,0,3.1-0.5,4.2-1.5s2.2-2.1,3.3-3.3
			c1.1-1.2,1.6-2.3,1.6-4.4c0-0.6,0-51.9,0-51.9H212.3z"/>
		<path d="M241.2,27.5c0,0,16.5,0,17.5,0s1.4,0.8,1.4,1.8c0,0.7,0,9.5,0,31.8h10.7c0-22.4,0-30,0-30c0-2.3-0.6-4.4-2.5-6l-3-3
			l3.7-3.7c1.3-1.4,1.8-2.8,1.8-4.6s0-4.5,0-4.5c0-1.7-0.7-3.3-1.7-4.3s-2.3-2.3-3.5-3.5S263,0,261.7,0s-31.3,0-31.3,0v61.1h10.8
			V27.5z M241.2,10.7c0,0,16.7,0,17.4,0c0.8,0,1.4,0.6,1.4,1.5s0,2.1,0,3c0,0.8-0.2,1.6-1.3,1.6c-1,0-17.6,0-17.6,0L241.2,10.7z"/>
		<path d="M380.2,44.3c0,0,16.5,0,17.5,0s1.4,0.8,1.4,1.8c0,0.7,0-7.3,0,15h10.7c0-12.3,0-13.1,0-13.1c0-2.3-0.6-4.4-2.5-6l-3-3
			l3.7-3.7c1.3-1.4,1.8-2.8,1.8-4.6s0-21.4,0-21.4c0-1.7-0.7-3.3-1.7-4.3s-2.3-2.3-3.5-3.5S402,0,400.7,0s-31.3,0-31.3,0v61.1h10.8
			V44.3z M380.2,10.7c0,0,16.7,0,17.5,0s1.4,0.6,1.4,1.5s0,18.9,0,19.7s-0.2,1.6-1.3,1.6c-1,0-17.6,0-17.6,0V10.7z"/>
		<path d="M317.8,16.9c0-2.2,0-6.9,0-7.7c0-2.1-0.4-3.2-1.6-4.4s-2.3-2.3-3.3-3.3c-1.1-1-2.4-1.5-4.2-1.5c-0.6,0-20.7,0-21.4,0
			c-2.1,0-3.2,0.4-4.4,1.6c-1.2,1.2-2.3,2.3-3.3,3.3c-1,1.1-1.5,2.4-1.5,4.2c0,0.7,0,42.4,0,43c0,1.7,0.5,3.1,1.5,4.2
			s2.1,2.2,3.3,3.3c1.2,1.1,2.3,1.6,4.4,1.6c0.6,0,20.7,0,21.4,0c1.7,0,3.1-0.5,4.2-1.5s2.2-2.1,3.3-3.3c1.1-1.2,1.6-2.3,1.6-4.4
			c0-0.6,0-3.9,0-7.6v-2.5v-8.3h-20.2v10.8h9.4c0,2.4,0,4.2,0,4.5c0,1-0.5,1.5-1.4,1.5c-0.3,0-14.9,0-15.2,0c-1,0-1.5-0.5-1.5-1.4
			c0-0.3,0-36.5,0-36.8c0-0.9,0.6-1.4,1.5-1.4c0.3,0,14.9,0,15.2,0c0.9,0,1.4,0.6,1.4,1.5c0,0.4,0,3.4,0,4.6L317.8,16.9L317.8,16.9z
			"/>
	</g>
	<g>
		<polygon points="98.3,3.6 98.3,16.7 116.8,16.7 116.8,20.3 98.3,20.3 98.3,57.5 124.6,57.5 124.6,61.1 94.7,61.1 94.7,0 124.6,0 
			124.6,3.6 		"/>
		<g>
			<polygon points="81,0 81,61.1 77.4,61.1 77.4,44.2 51,44.2 51,61.1 47.4,61.1 47.4,0 51,0 51,40.6 77.4,40.6 77.4,0 			"/>
		</g>
		<g>
			<polygon points="32.4,0 32.4,3.6 18,3.6 18,61.1 14.4,61.1 14.4,3.6 0,3.6 0,0 			"/>
		</g>
	</g>
</g>
</svg>
